<svg width="19" height="19" viewBox="0 0 19 19" fill="none" xmlns="http://www.w3.org/2000/svg">
<path d="M9.5 1.58333C13.8653 1.58333 17.4167 5.13475 17.4167 9.5C17.4167 13.8653 13.8653 17.4167 9.5 17.4167C5.13475 17.4167 1.58333 13.8653 1.58333 9.5C1.58333 5.13475 5.13475 1.58333 9.5 1.58333ZM9.5 0C4.25363 0 0 4.25363 0 9.5C0 14.7464 4.25363 19 9.5 19C14.7464 19 19 14.7464 19 9.5C19 4.25363 14.7464 0 9.5 0ZM14.25 11.0833H4.75C5.01204 12.2431 6.98804 14.25 9.50079 14.25C11.9819 14.25 13.9864 12.2542 14.25 11.0833ZM6.72917 6.33333C6.07367 6.33333 5.54167 6.86454 5.54167 7.52083C5.54167 8.17712 6.07367 8.70833 6.72917 8.70833C7.38467 8.70833 7.91667 8.17712 7.91667 7.52083C7.91667 6.86454 7.38467 6.33333 6.72917 6.33333ZM12.2708 6.33333C11.6153 6.33333 11.0833 6.86454 11.0833 7.52083C11.0833 8.17712 11.6153 8.70833 12.2708 8.70833C12.9263 8.70833 13.4583 8.17712 13.4583 7.52083C13.4583 6.86454 12.9263 6.33333 12.2708 6.33333Z" fill="#6C6D8F"/>
</svg>
