<svg width="18" height="18" viewBox="0 0 18 18" fill="none" xmlns="http://www.w3.org/2000/svg">
<g clip-path="url(#clip0_404_3272)">
<path d="M3.00029 16.3739C6.44054 16.6589 5.20829 13.0041 8.39129 12.9704L9.76979 14.1209C10.1133 18.2744 5.03354 19.2006 3.00029 16.3739ZM13.549 11.0376C14.6193 9.35837 17.9343 3.72587 17.9343 3.72587C18.1983 3.25862 17.6118 2.77112 17.2023 3.11612C17.2023 3.11612 12.2733 7.40162 10.819 8.75987C9.67004 9.83387 9.66479 10.3244 9.29279 12.0951L10.5528 13.1451C12.223 12.4589 12.7038 12.3659 13.549 11.0376ZM4.54979 13.9446C5.04929 13.0941 5.86079 11.7119 7.88504 11.4981C8.21054 9.93287 8.34029 9.02312 9.79529 7.66412C10.825 6.70262 13.4988 4.35737 15.061 2.99237C14.311 1.33637 11.9553 -0.0248755 8.92754 -0.00012551C3.95954 0.0411245 -0.0394562 4.09862 0.000293786 9.06887C0.0175438 11.2521 0.811044 13.2471 2.11529 14.7951C3.32879 15.1169 3.89729 15.0561 4.54979 13.9446ZM9.76379 2.06837C10.5903 2.06387 11.2675 2.72912 11.2758 3.55562C11.2788 4.38287 10.6143 5.06237 9.78629 5.06762C8.95754 5.07437 8.28029 4.40762 8.27579 3.57962C8.26604 2.75012 8.93279 2.07512 9.76379 2.06837ZM5.26604 3.56912C6.09254 3.56162 6.77204 4.22687 6.77504 5.05637C6.78404 5.88587 6.11504 6.56012 5.29004 6.56837C4.46054 6.57362 3.78329 5.90762 3.77804 5.07737C3.77129 4.25012 4.43579 3.57437 5.26604 3.56912ZM3.76379 8.06762C4.59329 8.06237 5.27129 8.72912 5.27579 9.55637C5.28329 10.3844 4.61579 11.0624 3.78629 11.0676C2.95754 11.0736 2.28254 10.4076 2.27804 9.57887C2.26979 8.75012 2.93729 8.07587 3.76379 8.06762ZM11.287 14.4666C11.3028 16.1459 10.6255 17.2551 10.0255 17.9069L9.99104 17.9399C13.9323 17.4966 16.7875 14.7119 14.6905 12.0231C13.6608 13.5584 12.79 13.8546 11.287 14.4666Z" fill="#414256"/>
</g>
<defs>
<clipPath id="clip0_404_3272">
<rect width="18" height="18" fill="white"/>
</clipPath>
</defs>
</svg>
