<svg width="19" height="19" viewBox="0 0 19 19" fill="none" xmlns="http://www.w3.org/2000/svg">
<g opacity="0.6" clip-path="url(#clip0_410_3332)">
<path d="M19 15.8333V16.625H15.8333V15.8333H16.4944C16.6986 15.8333 16.815 15.6924 16.7485 15.4992L16.374 14.4139H14.6078L14.1526 13.1551H15.9695L14.8912 9.9275L13.9777 12.6595L13.2818 10.682L14.0109 8.70833H15.77L18.1711 15.4502C18.259 15.6995 18.3643 15.8333 18.6287 15.8333H19ZM14.25 15.0417H15.0417V16.625H9.5V15.0417H9.92117C10.2845 15.0417 10.5402 14.683 10.4223 14.3395L9.77629 12.6667H4.84263L4.19742 14.3395C4.07946 14.683 4.33517 15.0417 4.69854 15.0417H5.54167V16.625H0V15.0417H0.340417C0.809875 15.0417 1.22946 14.7448 1.38542 14.3015L5.74513 2.375H8.87379L13.2335 14.3015C13.3895 14.7448 13.7798 15.0417 14.25 15.0417ZM5.63192 10.2917H8.987L7.19863 5.38413L5.63192 10.2917Z" fill="#6C6D8F"/>
</g>
<defs>
<clipPath id="clip0_410_3332">
<rect width="19" height="19" fill="white"/>
</clipPath>
</defs>
</svg>
