<svg width="18" height="18" viewBox="0 0 18 18" fill="none" xmlns="http://www.w3.org/2000/svg">
<path d="M18 9C18 13.9706 13.9706 18 9 18C4.02944 18 0 13.9706 0 9C0 4.02944 4.02944 0 9 0C13.9706 0 18 4.02944 18 9Z" fill="#FF9054"/>
<g clip-path="url(#clip0_251_149)">
<path d="M12.7034 7.14839C12.951 6.89572 12.948 6.49054 12.6967 6.24156C12.4432 5.99038 12.0337 5.99366 11.7843 6.24886L8.22043 9.89493C7.9449 10.1768 7.49393 10.1847 7.20866 9.91273L6.20515 8.95581C5.94938 8.71191 5.54488 8.71958 5.29853 8.97299C5.04937 9.22929 5.05648 9.63942 5.31437 9.88693L7.2253 11.721C7.51009 11.9943 7.96186 11.9874 8.23813 11.7055L12.7034 7.14839Z" fill="white"/>
<path fill-rule="evenodd" clip-rule="evenodd" d="M11.63 6.09793C11.9632 5.75701 12.5103 5.75264 12.8489 6.08818C13.1846 6.4208 13.1886 6.96208 12.8579 7.29962L8.39259 11.8567C8.03344 12.2232 7.44613 12.2322 7.07591 11.8769L5.16498 10.0428C4.82064 9.71234 4.81115 9.16471 5.14383 8.82248C5.47277 8.48412 6.01287 8.47388 6.35439 8.79954L7.3579 9.75646C7.55759 9.94688 7.87327 9.94133 8.06614 9.74401L11.63 6.09793ZM12.5449 6.39505C12.3765 6.22825 12.1046 6.23042 11.9389 6.3999L8.37508 10.046C8.01689 10.4124 7.43063 10.4227 7.05978 10.0691L6.05627 9.11218C5.88624 8.95005 5.61735 8.95515 5.45359 9.12361C5.28796 9.29398 5.29269 9.56662 5.46412 9.73115L7.37504 11.5652C7.5744 11.7566 7.89064 11.7517 8.08403 11.5543L12.5493 6.99727C12.7137 6.82948 12.7118 6.5604 12.5449 6.39505Z" fill="white"/>
</g>
<defs>
<clipPath id="clip0_251_149">
<rect width="7.71428" height="6.42857" fill="white" transform="translate(5.1416 5.78589)"/>
</clipPath>
</defs>
</svg>
