<svg width="20" height="20" viewBox="0 0 20 20" fill="none" xmlns="http://www.w3.org/2000/svg">
<g opacity="0.6">
<path d="M5.45508 6.36368C5.45508 5.8616 5.86209 5.45459 6.36417 5.45459H13.6369C14.139 5.45459 14.546 5.8616 14.546 6.36368V13.6364C14.546 14.1385 14.139 14.5455 13.6369 14.5455H6.36417C5.86209 14.5455 5.45508 14.1385 5.45508 13.6364V6.36368Z" fill="#6C6D8F"/>
<path fill-rule="evenodd" clip-rule="evenodd" d="M0 1.81818C0 0.814028 0.814027 0 1.81818 0H9.09091C10.0951 0 10.9091 0.814027 10.9091 1.81818V4.09091H9.09091V1.81818L1.81818 1.81818V9.09091H4.09091V10.9091H1.81818C0.814028 10.9091 0 10.0951 0 9.09091V1.81818Z" fill="#6C6D8F"/>
<path fill-rule="evenodd" clip-rule="evenodd" d="M20 18.1818C20 19.186 19.186 20 18.1818 20H10.9091C9.90494 20 9.09091 19.186 9.09091 18.1818V15.9091H10.9091V18.1818L18.1818 18.1818V10.9091H15.9091V9.09091H18.1818C19.186 9.09091 20 9.90494 20 10.9091V18.1818Z" fill="#6C6D8F"/>
</g>
</svg>
