<svg width="19" height="19" viewBox="0 0 19 19" fill="none" xmlns="http://www.w3.org/2000/svg">
<g opacity="0.6" clip-path="url(#clip0_410_3334)">
<path d="M7.91602 8.125C7.91602 7.57272 7.4683 7.125 6.91602 7.125H5.39286C4.53001 7.125 4.0722 6.10554 4.64545 5.46064L8.75194 0.840836C9.14973 0.393321 9.84897 0.393321 10.2468 0.840836L14.3532 5.46064C14.9265 6.10554 14.4687 7.125 13.6058 7.125H12.0827C11.5304 7.125 11.0827 7.57272 11.0827 8.125V13.8333C11.0827 14.3856 10.635 14.8333 10.0827 14.8333H8.91602C8.36373 14.8333 7.91602 14.3856 7.91602 13.8333V8.125ZM17.416 11.875C16.9788 11.875 16.6243 12.2294 16.6243 12.6667V16.4167C16.6243 16.969 16.1766 17.4167 15.6243 17.4167H3.37435C2.82206 17.4167 2.37435 16.969 2.37435 16.4167V12.6667C2.37435 12.2294 2.01991 11.875 1.58268 11.875C1.14546 11.875 0.791016 12.2294 0.791016 12.6667V18C0.791016 18.5523 1.23873 19 1.79102 19H17.2077C17.76 19 18.2077 18.5523 18.2077 18V12.6667C18.2077 12.2294 17.8532 11.875 17.416 11.875Z" fill="#6C6D8F"/>
</g>
<defs>
<clipPath id="clip0_410_3334">
<rect width="19" height="19" fill="white"/>
</clipPath>
</defs>
</svg>
